<svg xmlns:svg="http://www.w3.org/2000/svg" xmlns="http://www.w3.org/2000/svg" width="297mm" height="100mm" viewBox="0 0 297 105" id="svg8"><defs id="defs2"><clipPath id="clipPath3729" clipPathUnits="userSpaceOnUse"><path id="path3727" d="M0 6e2H6e2V0H0z"/></clipPath><clipPath clipPathUnits="userSpaceOnUse" id="clipPath6055"><path id="path6057" style="display:inline;fill:#ffffff;fill-opacity:1;stroke:none;stroke-width:2.54459572" d="m504.16311-311.25446-106.92391 61.71663c-4.00011 2.30541-6.46073 6.57015-6.46073 11.1835v0 123.53504c0 4.61589 2.46062 8.87809 6.45564 11.18858v0l106.92391 61.767519c3.99756 2.307948 8.92389 2.307948 12.924.0v0l106.94682-61.767519c3.99756-2.31049 6.45818-6.57269 6.45818-11.18858v0-123.52995c0-4.61844-2.46062-8.88318-6.46073-11.18859v0l-106.94936-61.71663c-1.9975-1.15524-4.22657-1.73032-6.45818-1.73032v0c-2.22906.0-4.46068.57508-6.45564 1.73032" clip-path="none"/></clipPath></defs><g style="display:inline" id="g988"><path d="m238.756 373.131-42.02-24.254c-1.572-.906-2.539-2.582-2.539-4.395v0-48.548c0-1.814.967-3.489 2.537-4.397v0l42.02-24.274c1.571-.907 3.507-.907 5.079.0v0l42.029 24.274c1.571.908 2.538 2.583 2.538 4.397v0 48.546c0 1.815-.967 3.491-2.539 4.397v0l-42.03 24.254c-.785.454-1.661.68-2.538.68v0c-.876.0-1.753-.226-2.537-.68" style="display:inline;fill:#2261a8;fill-opacity:1;stroke:none" id="path986" transform="matrix(0.85414046,0,0,-0.85414046,-136.62306,325.68399)"/></g><g transform="translate(0,-137)" style="display:inline" id="g6024"><g id="g6000" transform="matrix(0.33566843,0,0,-0.33566843,93.833153,320.85739)" style="fill:#ffffff;fill-opacity:1"><g clip-path="url(#clipPath3729)" id="g5998" style="fill:#ffffff;fill-opacity:1"><g transform="translate(296.6858,164.7731)" id="g5984" style="fill:#ffffff;fill-opacity:1"/><g transform="translate(309.0271,196.5389)" id="g5986" style="fill:#ffffff;fill-opacity:1"/><g transform="translate(357.6771,245.4249)" id="g5988" style="fill:#ffffff;fill-opacity:1"/><g transform="translate(172.9639,345.1672)" id="g5990" style="fill:#ffffff;fill-opacity:1"/><g transform="translate(372.849,310.9881)" id="g5992" style="fill:#ffffff;fill-opacity:1"/><g transform="translate(517.8843,328.2278)" id="g5994" style="fill:#ffffff;fill-opacity:1"/><g transform="translate(472.5912,330.5186)" id="g5996" style="fill:#ffffff;fill-opacity:1"/></g></g><g id="g6008" transform="matrix(0.33566843,0,0,-0.33566843,93.833153,320.85739)" style="fill:#ffffff;fill-opacity:1"><g id="g6006" style="fill:#ffffff;fill-opacity:1"><g id="g6004" style="fill:#ffffff;fill-opacity:1"><g id="g6002" style="fill:#ffffff;fill-opacity:1"/></g></g></g><g id="g6016" transform="matrix(0.81271557,0,0,-0.81271557,-122.48932,447.8392)" style="fill:#ffffff;fill-opacity:1"><g id="g6014" style="fill:#ffffff;fill-opacity:1"><g id="g6012" style="fill:#ffffff;fill-opacity:1"><g id="g6010" style="fill:#ffffff;fill-opacity:1"/></g></g></g><g id="text6020" style="font-style:normal;font-weight:normal;font-size:179.62197876px;line-height:1.25;font-family:sans-serif;letter-spacing:0px;word-spacing:0px;fill:#ffffff;fill-opacity:1;stroke:none;stroke-width:4.49055004;stroke-opacity:1" transform="matrix(0.33566843,0,0,0.33566843,-101.92354,248.65528)" aria-label="TS" clip-path="url(#clipPath6055)"><path id="path6026" style="font-style:normal;font-variant:normal;font-weight:bold;font-stretch:normal;font-size:179.61877441px;font-family:'Neutra Text';-inkscape-font-specification:'Neutra Text, Bold';font-variant-ligatures:normal;font-variant-caps:normal;font-variant-numeric:normal;font-feature-settings:normal;text-align:start;writing-mode:lr-tb;text-anchor:start;fill:#ffffff;fill-opacity:1;stroke:none;stroke-width:4.49055004;stroke-opacity:1" d="m463.02884-49.655869h25.14663V-149.70353h34.84604v-22.09311H428.1828v22.09311h34.84604z"/><path id="path6028" style="font-style:normal;font-variant:normal;font-weight:bold;font-stretch:normal;font-size:179.61877441px;font-family:'Neutra Text';-inkscape-font-specification:'Neutra Text, Bold';font-variant-ligatures:normal;font-variant-caps:normal;font-variant-numeric:normal;font-feature-settings:normal;text-align:start;writing-mode:lr-tb;text-anchor:start;fill:#ffffff;fill-opacity:1;stroke:none;stroke-width:4.49055004;stroke-opacity:1" d="m575.63859-48.0393c23.88929.0 41.67155-12.393695 41.67155-35.025661.0-21.015399-12.03446-30.355569-33.40909-39.516129l-6.28666-2.69428c-10.77712-4.67009-15.44721-7.72361-15.44721-15.2676.0-6.10704 4.67009-10.77712 12.03446-10.77712 7.18475.0 11.85484 3.05351 16.16569 10.77712l19.57844-12.57331c-8.26246-14.54912-19.75806-20.11731-35.74413-20.11731-22.45235.0-36.82185 14.36951-36.82185 33.22948.0 20.47654 12.03446 30.17595 30.17595 37.89956l6.28666 2.694281c11.4956 5.029326 18.32111 8.082845 18.32111 16.704546.0 7.184751-6.64589 12.393695-17.06378 12.393695-12.39369.0-19.39883-6.466275-24.78739-15.267595L529.8358-73.724784c7.36437 14.54912 22.45235 25.685484 45.80279 25.685484z"/></g></g><g id="layer2" style="display:inline" transform="translate(0,-137)"><path id="path3745" style="display:inline;fill:#333333;fill-opacity:1;fill-rule:evenodd;stroke:none;stroke-width:0.35277775" d="m154.44825 203.91803c0-.64946-.34184-1.24636-.90241-1.56845l-14.94331-8.59966c-.25259-.14852-.53587-.22613-.82268-.23777h-.15451c-.2854.0116-.56868.0892-.82515.23777l-14.94331 8.59966c-.55704.32209-.90346.91899-.90346 1.56845l.0328 23.15669c0 .32208.16722.62159.45085.77964.27729.16615.62019.16615.89641.0l8.88083-5.0853c.56162-.33372.90346-.92216.90346-1.56598v-10.81863c0-.64488.34149-1.24213.90099-1.56245l3.78143-2.17805c.28222-.16299.58984-.24236.90487-.24236.30763.0.62371.0794.89747.24236l3.78037 2.17805c.5595.32032.9024.91757.9024 1.56245v10.81863c0 .64382.34643 1.23614.90452 1.56598l8.87836 5.0853c.2787.16615.62654.16615.90241.0.27517-.15805.44838-.45756.44838-.77964z"/><path id="path3749" style="display:inline;fill:#333333;fill-opacity:1;fill-rule:evenodd;stroke:none;stroke-width:0.35277775" d="m224.96327 215.97566c0 .16087-.0861.31009-.22578.39017l-5.13291 2.95875c-.139.0801-.31115.0801-.4505.0l-5.13257-2.95875c-.14005-.0801-.22578-.2293-.22578-.39017v-5.92667c0-.16086.0857-.31009.22543-.39087l5.13257-2.96475c.1397-.0808.31185-.0808.45155.0l5.13256 2.96475c.13935.0808.22543.23001.22543.39087zm1.38712-43.8905c-.27975-.15557-.62124-.15204-.89747.01-.27552.16228-.4452.45826-.4452.77823v22.93303c0 .22507-.12065.43391-.31539.5468-.19543.11324-.43638.11324-.63182.0l-3.74297-2.15618c-.55845-.32173-1.24531-.32138-1.8034 72e-5l-14.94931 8.62718c-.5588.32244-.90276.91828-.90276 1.56316v17.25789c0 .64523.34396 1.24071.9024 1.56386l14.94826 8.63388c.5588.32244 1.24707.32244 1.80587.0l14.95107-8.63388c.55809-.32315.90241-.91863.90241-1.56386v-43.02023c0-.65405-.35419-1.25765-.92605-1.57656z"/><path id="path3753" style="display:inline;fill:#333333;fill-opacity:1;fill-rule:evenodd;stroke:none;stroke-width:0.35277775" d="m276.12849 209.89388c.55598-.32315.89818-.91758.89818-1.56069v-4.18218c0-.64312-.3422-1.23825-.89888-1.5614l-14.853-8.62365c-.5588-.32491-1.24883-.32561-1.80869-.002l-14.94402 8.62718c-.5581.32244-.90241.91828-.90241 1.56316v17.25365c0 .64876.34855 1.24742.91193 1.5681l14.85089 8.46243c.54751.31256 1.21884.31609 1.76988.01l8.98278-4.99286c.28469-.1584.46214-.45755.46391-.78281.002-.32562-.17075-.62689-.45297-.78882l-15.03856-8.632c-.28081-.16087-.45332-.46002-.45332-.78317v-5.40702c0-.32244.1718-.62089.45155-.78176l4.68031-2.69839c.27869-.16087.62265-.16087.90099.0l4.68277 2.69839c.27975.16087.45191.45932.45191.78176v4.25415c0 .32314.17251.62159.45226.78246.27975.16157.62442.16051.90347-.002z"/><path id="path3757" style="display:inline;fill:#2261a8;fill-opacity:1;fill-rule:evenodd;stroke:none;stroke-width:0.35277775" d="m260.1501 209.08573c.10724-.0621.23918-.0621.34643.0l2.86843 1.65488c.10725.0621.17322.17604.17322.30022v3.31223c0 .12382-.066.23812-.17322.30021l-2.86843 1.65488c-.10725.0617-.23919.0617-.34643.0l-2.86632-1.65488c-.10689-.0621-.17321-.17639-.17321-.30021v-3.31223c0-.12418.0663-.23813.17321-.30022z"/><path id="path3781" style="display:inline;fill:#2261a8;fill-opacity:1;stroke:none;stroke-width:0.35277775" d="m177.65824 194.05303-14.82372 8.55627c-.55457.31961-.89571.91087-.89571 1.55046v0 17.12665c0 .63994.34114 1.23084.895 1.55117v0l14.82372 8.56332c.55422.31997 1.23719.31997 1.79176.0v0l14.8269-8.56332c.55421-.32033.89535-.91123.89535-1.55117v0-17.12595c0-.64029-.34114-1.23155-.89571-1.55116v0l-14.82724-8.55627c-.27693-.16016-.58597-.23989-.89535-.23989v0c-.30904.0-.61842.0797-.895.23989"/></g></svg>